<svg>
    <defs>
        <g id="account-placeholder">
            <path d="M12,0 C5.376,0 0,5.376 0,12 C0,18.624 5.376,24 12,24 C18.624,24 24,18.624 24,12 C24,5.376 18.624,0 12,0 L12,0 Z M12,3.6 C13.992,3.6 15.6,5.208 15.6,7.2 C15.6,9.192 13.992,10.8 12,10.8 C10.008,10.8 8.4,9.192 8.4,7.2 C8.4,5.208 10.008,3.6 12,3.6 L12,3.6 Z M12,20.64 C9,20.64 6.348,19.104 4.8,16.776 C4.836,14.388 9.6,13.08 12,13.08 C14.388,13.08 19.164,14.388 19.2,16.776 C17.652,19.104 15,20.64 12,20.64 L12,20.64 Z"/>
        </g>
        <g id="account-box">
            <path d="M3 5v14c0 1.1.89 2 2 2h14c1.1 0 2-.9 2-2V5c0-1.1-.9-2-2-2H5c-1.11 0-2 .9-2 2zm12 4c0 1.66-1.34 3-3 3s-3-1.34-3-3 1.34-3 3-3 3 1.34 3 3zm-9 8c0-2 4-3.1 6-3.1s6 1.1 6 3.1v1H6v-1z"/>
        </g>
        <g id="account-circle">
            <path d="M12 2C6.48 2 2 6.48 2 12s4.48 10 10 10 10-4.48 10-10S17.52 2 12 2zm0 3c1.66 0 3 1.34 3 3s-1.34 3-3 3-3-1.34-3-3 1.34-3 3-3zm0 14.2c-2.5 0-4.71-1.28-6-3.22.03-1.99 4-3.08 6-3.08 1.99 0 5.97 1.09 6 3.08-1.29 1.94-3.5 3.22-6 3.22z"/>
        </g>
        <g id="add">
            <path d="M19 13h-6v6h-2v-6H5v-2h6V5h2v6h6v2z"/>
        </g>
        <g id="add-circle-outline">
            <path d="M13 7h-2v4H7v2h4v4h2v-4h4v-2h-4V7zm-1-5C6.48 2 2 6.48 2 12s4.48 10 10 10 10-4.48 10-10S17.52 2 12 2zm0 18c-4.41 0-8-3.59-8-8s3.59-8 8-8 8 3.59 8 8-3.59 8-8 8z"/>
        </g>
        <g id="add-seat">
            <path d="M10.3,15.3999998 L10.3,17.3499998 L12.25,17.3499998 L12.25,15.3999998 L18.75,15.3999998 L18.75,17.3499998 L20.7,17.3499998 L20.7,13.4499998 L10.3,13.4499998 L10.3,15.3999998 Z M20.05,10.1999998 L22,10.1999998 L22,12.1499998 L20.05,12.1499998 L20.05,10.1999998 Z M9,10.1999998 L10.95,10.1999998 L10.95,12.1499998 L9,12.1499998 L9,10.1999998 Z M18.75,12.1499998 L12.25,12.1499998 L12.25,6.94999981 C12.25,6.23499981 12.835,5.64999981 13.55,5.64999981 L17.45,5.64999981 C18.165,5.64999981 18.75,6.23499981 18.75,6.94999981 L18.75,12.1499998 Z"/>
            <polygon points="8 12.4285714 5.42857143 12.4285714 5.42857143 15 4.57142857 15 4.57142857 12.4285714 2 12.4285714 2 11.5714286 4.57142857 11.5714286 4.57142857 9 5.42857143 9 5.42857143 11.5714286 8 11.5714286"/>
        </g>
        <g id="apps">
            <path d="M4 8h4V4H4v4zm6 12h4v-4h-4v4zm-6 0h4v-4H4v4zm0-6h4v-4H4v4zm6 0h4v-4h-4v4zm6-10v4h4V4h-4zm-6 4h4V4h-4v4zm6 6h4v-4h-4v4zm0 6h4v-4h-4v4z"/>
        </g>
        <g id="archive"> 
            <path d="M20.54 5.23l-1.39-1.68C18.88 3.21 18.47 3 18 3H6c-.47 0-.88.21-1.16.55L3.46 5.23C3.17 5.57 3 6.02 3 6.5V19c0 1.1.9 2 2 2h14c1.1 0 2-.9 2-2V6.5c0-.48-.17-.93-.46-1.27zM12 17.5L6.5 12H10v-2h4v2h3.5L12 17.5zM5.12 5l.81-1h12l.94 1H5.12z"/> 
        </g> 
        <g id="arrow-back">
            <path d="M20 11H7.83l5.59-5.59L12 4l-8 8 8 8 1.41-1.41L7.83 13H20v-2z"/>
        </g>
        <g id="arrow-forward">
            <path d="M12 4l-1.41 1.41L16.17 11H4v2h12.17l-5.58 5.59L12 20l8-8z"/>
        </g>
        <g id="assessment">
            <path d="M19 3H5c-1.1 0-2 .9-2 2v14c0 1.1.9 2 2 2h14c1.1 0 2-.9 2-2V5c0-1.1-.9-2-2-2zM9 17H7v-7h2v7zm4 0h-2V7h2v10zm4 0h-2v-4h2v4z"/>
        </g>
        <g id="assignment">
            <path d="M19 3h-4.18C14.4 1.84 13.3 1 12 1c-1.3 0-2.4.84-2.82 2H5c-1.1 0-2 .9-2 2v14c0 1.1.9 2 2 2h14c1.1 0 2-.9 2-2V5c0-1.1-.9-2-2-2zm-7 0c.55 0 1 .45 1 1s-.45 1-1 1-1-.45-1-1 .45-1 1-1zm2 14H7v-2h7v2zm3-4H7v-2h10v2zm0-4H7V7h10v2z"/>
        </g>
        <g id="binoculars">
            <path d="M11,6H13V13H11V6M9,20A1,1 0 0,1 8,21H5A1,1 0 0,1 4,20V15L6,6H10V13A1,1 0 0,1 9,14V20M10,5H7V3H10V5M15,20V14A1,1 0 0,1 14,13V6H18L20,15V20A1,1 0 0,1 19,21H16A1,1 0 0,1 15,20M14,5V3H17V5H14Z" />
        </g>
        <g id="bullseye">
            <path d="M12,2A10,10 0 0,0 2,12A10,10 0 0,0 12,22A10,10 0 0,0 22,12A10,10 0 0,0 12,2M12,4A8,8 0 0,1 20,12A8,8 0 0,1 12,20A8,8 0 0,1 4,12A8,8 0 0,1 12,4M12,6A6,6 0 0,0 6,12A6,6 0 0,0 12,18A6,6 0 0,0 18,12A6,6 0 0,0 12,6M12,8A4,4 0 0,1 16,12A4,4 0 0,1 12,16A4,4 0 0,1 8,12A4,4 0 0,1 12,8M12,10A2,2 0 0,0 10,12A2,2 0 0,0 12,14A2,2 0 0,0 14,12A2,2 0 0,0 12,10Z" />
        </g>
        <g id="cancel">
            <path d="M12 2C6.47 2 2 6.47 2 12s4.47 10 10 10 10-4.47 10-10S17.53 2 12 2zm5 13.59L15.59 17 12 13.41 8.41 17 7 15.59 10.59 12 7 8.41 8.41 7 12 10.59 15.59 7 17 8.41 13.41 12 17 15.59z"/>
        </g>
        <g id="chart-line"> 
            <path d="M16,11.78L20.24,4.45L21.97,5.45L16.74,14.5L10.23,10.75L5.46,19H22V21H2V3H4V17.54L9.5,8L16,11.78Z" /> 
        </g> 
        <g id="checkbox-outline">
            <path d="M19,19H5V5H15V3H5C3.89,3 3,3.89 3,5V19A2,2 0 0,0 5,21H19A2,2 0 0,0 21,19V11H19M7.91,10.08L6.5,11.5L11,16L21,6L19.59,4.58L11,13.17L7.91,10.08Z" />
        </g>
        <g id="check-circle"> 
            <path d="M12 2C6.48 2 2 6.48 2 12s4.48 10 10 10 10-4.48 10-10S17.52 2 12 2zm-2 15l-5-5 1.41-1.41L10 14.17l7.59-7.59L19 8l-9 9z"/> 
        </g>
        <g id="check-circle-outline">
            <path d="M12,2A10,10 0 0,1 22,12A10,10 0 0,1 12,22A10,10 0 0,1 2,12A10,10 0 0,1 12,2M12,4A8,8 0 0,0 4,12A8,8 0 0,0 12,20A8,8 0 0,0 20,12A8,8 0 0,0 12,4M11,16.5L6.5,12L7.91,10.59L11,13.67L16.59,8.09L18,9.5L11,16.5Z" />
        </g>
        <g id="chevron-left">
            <path d="M15.41 7.41L14 6l-6 6 6 6 1.41-1.41L10.83 12z"/>
        </g>
        <g id="chevron-right">
            <path d="M10 6L8.59 7.41 13.17 12l-4.58 4.59L10 18l6-6z"/>
        </g>
        <g id="circle"> 
            <path d="M12,2A10,10 0 0,0 2,12A10,10 0 0,0 12,22A10,10 0 0,0 22,12A10,10 0 0,0 12,2Z" /> 
        </g>
        <g id="clear">
            <path d="M19 6.41L17.59 5 12 10.59 6.41 5 5 6.41 10.59 12 5 17.59 6.41 19 12 13.41 17.59 19 19 17.59 13.41 12z"/>
        </g>
        <g id="close">
            <path d="M19 6.41L17.59 5 12 10.59 6.41 5 5 6.41 10.59 12 5 17.59 6.41 19 12 13.41 17.59 19 19 17.59 13.41 12z"/>
        </g>
        <g id="cloud-download">
            <path d="M19.35 10.04C18.67 6.59 15.64 4 12 4 9.11 4 6.6 5.64 5.35 8.04 2.34 8.36 0 10.91 0 14c0 3.31 2.69 6 6 6h13c2.76 0 5-2.24 5-5 0-2.64-2.05-4.78-4.65-4.96zM17 13l-5 5-5-5h3V9h4v4h3z"/>
        </g>
        <g id="cloud-upload">
            <path d="M19.35 10.04C18.67 6.59 15.64 4 12 4 9.11 4 6.6 5.64 5.35 8.04 2.34 8.36 0 10.91 0 14c0 3.31 2.69 6 6 6h13c2.76 0 5-2.24 5-5 0-2.64-2.05-4.78-4.65-4.96zM14 13v4h-4v-4H7l5-5 5 5h-3z"/>
        </g>
        <g id="contacts">
            <path d="M20 0H4v2h16V0zM4 24h16v-2H4v2zM20 4H4c-1.1 0-2 .9-2 2v12c0 1.1.9 2 2 2h16c1.1 0 2-.9 2-2V6c0-1.1-.9-2-2-2zm-8 2.75c1.24 0 2.25 1.01 2.25 2.25s-1.01 2.25-2.25 2.25S9.75 10.24 9.75 9 10.76 6.75 12 6.75zM17 17H7v-1.5c0-1.67 3.33-2.5 5-2.5s5 .83 5 2.5V17z"/>
        </g>
        <g id="create">
            <path d="M3 17.25V21h3.75L17.81 9.94l-3.75-3.75L3 17.25zM20.71 7.04c.39-.39.39-1.02 0-1.41l-2.34-2.34c-.39-.39-1.02-.39-1.41 0l-1.83 1.83 3.75 3.75 1.83-1.83z"/>
        </g>
        <g id="dashboard">
            <path d="M3 13h8V3H3v10zm0 8h8v-6H3v6zm10 0h8V11h-8v10zm0-18v6h8V3h-8z"/>
        </g>
        <g id="descending-arrow">
            <polyline points="12 21.5 16 17.5 13 17.5 13 2.5 11 2.5 11 17.5 8 17.5"></polyline>
        </g>
        <g id="description">
            <path d="M14 2H6c-1.1 0-1.99.9-1.99 2L4 20c0 1.1.89 2 1.99 2H18c1.1 0 2-.9 2-2V8l-6-6zm2 16H8v-2h8v2zm0-4H8v-2h8v2zm-3-5V3.5L18.5 9H13z"/>
        </g>
        <g id="delete">
            <path d="M6 19c0 1.1.9 2 2 2h8c1.1 0 2-.9 2-2V7H6v12zM19 4h-3.5l-1-1h-5l-1 1H5v2h14V4z"/>
        </g>
        <g id="domain">
            <path d="M12 7V3H2v18h20V7H12zM6 19H4v-2h2v2zm0-4H4v-2h2v2zm0-4H4V9h2v2zm0-4H4V5h2v2zm4 12H8v-2h2v2zm0-4H8v-2h2v2zm0-4H8V9h2v2zm0-4H8V5h2v2zm10 12h-8v-2h2v-2h-2v-2h2v-2h-2V9h8v10zm-2-8h-2v2h2v-2zm0 4h-2v2h2v-2z"/>
        </g>
        <g id="done">
            <path d="M9 16.2L4.8 12l-1.4 1.4L9 19 21 7l-1.4-1.4L9 16.2z"/>
        </g>
        <g id="done-all">
            <path d="M18 7l-1.41-1.41-6.34 6.34 1.41 1.41L18 7zm4.24-1.41L11.66 16.17 7.48 12l-1.41 1.41L11.66 19l12-12-1.42-1.41zM.41 13.41L6 19l1.41-1.41L1.83 12 .41 13.41z"/>
        </g>
        <g id="drag">
            <path d="M7,19V17H9V19H7M11,19V17H13V19H11M15,19V17H17V19H15M7,15V13H9V15H7M11,15V13H13V15H11M15,15V13H17V15H15M7,11V9H9V11H7M11,11V9H13V11H11M15,11V9H17V11H15M7,7V5H9V7H7M11,7V5H13V7H11M15,7V5H17V7H15Z" />
        </g>
        <g id="edit">
            <path d="M3 17.25V21h3.75L17.81 9.94l-3.75-3.75L3 17.25zM20.71 7.04c.39-.39.39-1.02 0-1.41l-2.34-2.34c-.39-.39-1.02-.39-1.41 0l-1.83 1.83 3.75 3.75 1.83-1.83z"/>
        </g>
        <g id="error-outline">
            <path d="M11 15h2v2h-2zm0-8h2v6h-2zm.99-5C6.47 2 2 6.48 2 12s4.47 10 9.99 10C17.52 22 22 17.52 22 12S17.52 2 11.99 2zM12 20c-4.42 0-8-3.58-8-8s3.58-8 8-8 8 3.58 8 8-3.58 8-8 8z"/>
        </g>
        <g id="event">
            <path d="M17 12h-5v5h5v-5zM16 1v2H8V1H6v2H5c-1.11 0-1.99.9-1.99 2L3 19c0 1.1.89 2 2 2h14c1.1 0 2-.9 2-2V5c0-1.1-.9-2-2-2h-1V1h-2zm3 18H5V8h14v11z"/>
        </g>
        <g id="expand-less">
            <path d="M12 8l-6 6 1.41 1.41L12 10.83l4.59 4.58L18 14z"/>
        </g>
        <g id="expand-more">
            <path d="M16.59 8.59L12 13.17 7.41 8.59 6 10l6 6 6-6z"/>
        </g>
        <g id="exit">
            <path d="M10.09 15.59L11.5 17l5-5-5-5-1.41 1.41L12.67 11H3v2h9.67l-2.58 2.59zM19 3H5c-1.11 0-2 .9-2 2v4h2V5h14v14H5v-4H3v4c0 1.1.89 2 2 2h14c1.1 0 2-.9 2-2V5c0-1.1-.9-2-2-2z"/>
        </g>
        <g id="file-download">
            <path d="M19 9h-4V3H9v6H5l7 7 7-7zM5 18v2h14v-2H5z"/>
        </g>
        <g id="file-upload">
            <path d="M9 16h6v-6h4l-7-7-7 7h4zm-4 2h14v2H5z"/>
        </g>
        <g id="forum">
            <path d="M21 6h-2v9H6v2c0 .55.45 1 1 1h11l4 4V7c0-.55-.45-1-1-1zm-4 6V3c0-.55-.45-1-1-1H3c-.55 0-1 .45-1 1v14l4-4h10c.55 0 1-.45 1-1z"/>
        </g>
        <g id="glasses">
            <path d="M3,10C2.76,10 2.55,10.09 2.41,10.25C2.27,10.4 2.21,10.62 2.24,10.86L2.74,13.85C2.82,14.5 3.4,15 4,15H7C7.64,15 8.36,14.44 8.5,13.82L9.56,10.63C9.6,10.5 9.57,10.31 9.5,10.19C9.39,10.07 9.22,10 9,10H3M7,17H4C2.38,17 0.96,15.74 0.76,14.14L0.26,11.15C0.15,10.3 0.39,9.5 0.91,8.92C1.43,8.34 2.19,8 3,8H9C9.83,8 10.58,8.35 11.06,8.96C11.17,9.11 11.27,9.27 11.35,9.45C11.78,9.36 12.22,9.36 12.64,9.45C12.72,9.27 12.82,9.11 12.94,8.96C13.41,8.35 14.16,8 15,8H21C21.81,8 22.57,8.34 23.09,8.92C23.6,9.5 23.84,10.3 23.74,11.11L23.23,14.18C23.04,15.74 21.61,17 20,17H17C15.44,17 13.92,15.81 13.54,14.3L12.64,11.59C12.26,11.31 11.73,11.31 11.35,11.59L10.43,14.37C10.07,15.82 8.56,17 7,17M15,10C14.78,10 14.61,10.07 14.5,10.19C14.42,10.31 14.4,10.5 14.45,10.7L15.46,13.75C15.64,14.44 16.36,15 17,15H20C20.59,15 21.18,14.5 21.25,13.89L21.76,10.82C21.79,10.62 21.73,10.4 21.59,10.25C21.45,10.09 21.24,10 21,10H15Z" />
        </g>
        <g id="group-add">
            <path d="M8 10H5V7H3v3H0v2h3v3h2v-3h3v-2zm10 1c1.66 0 2.99-1.34 2.99-3S19.66 5 18 5c-.32 0-.63.05-.91.14.57.81.9 1.79.9 2.86s-.34 2.04-.9 2.86c.28.09.59.14.91.14zm-5 0c1.66 0 2.99-1.34 2.99-3S14.66 5 13 5c-1.66 0-3 1.34-3 3s1.34 3 3 3zm6.62 2.16c.83.73 1.38 1.66 1.38 2.84v2h3v-2c0-1.54-2.37-2.49-4.38-2.84zM13 13c-2 0-6 1-6 3v2h12v-2c0-2-4-3-6-3z"/>
        </g>
        <g id="group-work">
            <path d="M12 2C6.48 2 2 6.48 2 12s4.48 10 10 10 10-4.48 10-10S17.52 2 12 2zM8 17.5c-1.38 0-2.5-1.12-2.5-2.5s1.12-2.5 2.5-2.5 2.5 1.12 2.5 2.5-1.12 2.5-2.5 2.5zM9.5 8c0-1.38 1.12-2.5 2.5-2.5s2.5 1.12 2.5 2.5-1.12 2.5-2.5 2.5S9.5 9.38 9.5 8zm6.5 9.5c-1.38 0-2.5-1.12-2.5-2.5s1.12-2.5 2.5-2.5 2.5 1.12 2.5 2.5-1.12 2.5-2.5 2.5z"/>
        </g>
        <g id="help">
            <path d="M12 2C6.48 2 2 6.48 2 12s4.48 10 10 10 10-4.48 10-10S17.52 2 12 2zm1 17h-2v-2h2v2zm2.07-7.75l-.9.92C13.45 12.9 13 13.5 13 15h-2v-.5c0-1.1.45-2.1 1.17-2.83l1.24-1.26c.37-.36.59-.86.59-1.41 0-1.1-.9-2-2-2s-2 .9-2 2H8c0-2.21 1.79-4 4-4s4 1.79 4 4c0 .88-.36 1.68-.93 2.25z"/>
        </g>
        <g id="help-outline">
            <path d="M11 18h2v-2h-2v2zm1-16C6.48 2 2 6.48 2 12s4.48 10 10 10 10-4.48 10-10S17.52 2 12 2zm0 18c-4.41 0-8-3.59-8-8s3.59-8 8-8 8 3.59 8 8-3.59 8-8 8zm0-14c-2.21 0-4 1.79-4 4h2c0-1.1.9-2 2-2s2 .9 2 2c0 2-3 1.75-3 5h2c0-2.25 3-2.5 3-5 0-2.21-1.79-4-4-4z"/>
        </g>
        <g id="highway">
            <path d="M10,2L8,8H11V2H10M13,2V8H16L14,2H13M2,9V10H4V11H6V10H18L18.06,11H20V10H22V9H2M7,11L3.34,22H11V11H7M13,11V22H20.66L17,11H13Z" />
        </g>
        <g id="home">
            <path d="M10 20v-6h4v6h5v-8h3L12 3 2 12h3v8z"/>
        </g>
        <g id="hub">
            <path d="M17 16l-4-4V8.82C14.16 8.4 15 7.3 15 6c0-1.66-1.34-3-3-3S9 4.34 9 6c0 1.3.84 2.4 2 2.82V12l-4 4H3v5h5v-3.05l4-4.2 4 4.2V21h5v-5h-4z"/>
        </g>
        <g id="import">
            <path d="M14,12L10,8V11H2V13H10V16M20,18V6C20,4.89 19.1,4 18,4H6A2,2 0 0,0 4,6V9H6V6H18V18H6V15H4V18A2,2 0 0,0 6,20H18A2,2 0 0,0 20,18Z" />
        </g>
        <g id="info">
            <path d="M12 2C6.48 2 2 6.48 2 12s4.48 10 10 10 10-4.48 10-10S17.52 2 12 2zm1 15h-2v-6h2v6zm0-8h-2V7h2v2z"/>
        </g>
        <g id="loop">
            <path d="M12 4V1L8 5l4 4V6c3.31 0 6 2.69 6 6 0 1.01-.25 1.97-.7 2.8l1.46 1.46C19.54 15.03 20 13.57 20 12c0-4.42-3.58-8-8-8zm0 14c-3.31 0-6-2.69-6-6 0-1.01.25-1.97.7-2.8L5.24 7.74C4.46 8.97 4 10.43 4 12c0 4.42 3.58 8 8 8v3l4-4-4-4v3z"/>
        </g>
        <g id="logout">
            <path d="M17,17.25V14H10V10H17V6.75L22.25,12L17,17.25M13,2A2,2 0 0,1 15,4V8H13V4H4V20H13V16H15V20A2,2 0 0,1 13,22H4A2,2 0 0,1 2,20V4A2,2 0 0,1 4,2H13Z" />
        </g>
        <g id="menu">
            <path d="M3 18h18v-2H3v2zm0-5h18v-2H3v2zm0-7v2h18V6H3z"/>
        </g>
        <g id="more-actions">
            <path d="M17.63,5.84 C17.27,5.33 16.67,5 16,5 L5,5.01 C3.9,5.01 3,5.9 3,7 L3,17 C3,18.1 3.9,18.99 5,18.99 L16,19 C16.67,19 17.27,18.67 17.63,18.16 L22,12 L17.63,5.84 Z M16,17 L5,17 L5,7 L16,7 L19.55,12 L16,17 Z"/>
            <circle cx="8" cy="12" r="1"/>
            <circle cx="11" cy="12" r="1"/>
            <circle cx="14" cy="12" r="1"/>
        </g>
        <g id="new-releases">
            <path d="M23 12l-2.44-2.78.34-3.68-3.61-.82-1.89-3.18L12 3 8.6 1.54 6.71 4.72l-3.61.81.34 3.68L1 12l2.44 2.78-.34 3.69 3.61.82 1.89 3.18L12 21l3.4 1.46 1.89-3.18 3.61-.82-.34-3.68L23 12zm-10 5h-2v-2h2v2zm0-4h-2V7h2v6z"/>
        </g>
        <g id="notifications">
            <path d="M12 22c1.1 0 2-.9 2-2h-4c0 1.1.89 2 2 2zm6-6v-5c0-3.07-1.64-5.64-4.5-6.32V4c0-.83-.67-1.5-1.5-1.5s-1.5.67-1.5 1.5v.68C7.63 5.36 6 7.92 6 11v5l-2 2v1h16v-1l-2-2z"/>
        </g>
        <g id="notifications-none">
            <path d="M12 22c1.1 0 2-.9 2-2h-4c0 1.1.9 2 2 2zm6-6v-5c0-3.07-1.63-5.64-4.5-6.32V4c0-.83-.67-1.5-1.5-1.5s-1.5.67-1.5 1.5v.68C7.64 5.36 6 7.92 6 11v5l-2 2v1h16v-1l-2-2zm-2 1H8v-6c0-2.48 1.51-4.5 4-4.5s4 2.02 4 4.5v6z"/>
        </g>
        <g id="numeric-0">
            <path d="M19,19V5H5V19H19M19,3A2,2 0 0,1 21,5V19A2,2 0 0,1 19,21H5A2,2 0 0,1 3,19V5A2,2 0 0,1 5,3H19M11,7H13A2,2 0 0,1 15,9V15A2,2 0 0,1 13,17H11A2,2 0 0,1 9,15V9A2,2 0 0,1 11,7M11,9V15H13V9H11Z" />
        </g>
        <g id="numeric-1">
            <path d="M19,19H5V5H19M19,3H5A2,2 0 0,0 3,5V19A2,2 0 0,0 5,21H19A2,2 0 0,0 21,19V5A2,2 0 0,0 19,3M12,17H14V7H10V9H12" />
        </g>
        <g id="numeric-2">
            <path d="M15,15H11V13H13A2,2 0 0,0 15,11V9C15,7.89 14.1,7 13,7H9V9H13V11H11A2,2 0 0,0 9,13V17H15M19,19H5V5H19M19,3H5A2,2 0 0,0 3,5V19A2,2 0 0,0 5,21H19A2,2 0 0,0 21,19V5A2,2 0 0,0 19,3Z" />
        </g>
        <g id="numeric-3">
            <path d="M15,15V13.5A1.5,1.5 0 0,0 13.5,12A1.5,1.5 0 0,0 15,10.5V9C15,7.89 14.1,7 13,7H9V9H13V11H11V13H13V15H9V17H13A2,2 0 0,0 15,15M19,19H5V5H19M19,3H5A2,2 0 0,0 3,5V19A2,2 0 0,0 5,21H19A2,2 0 0,0 21,19V5A2,2 0 0,0 19,3Z" />
        </g>
        <g id="numeric-4">
            <path d="M19,19H5V5H19M19,3H5A2,2 0 0,0 3,5V19A2,2 0 0,0 5,21H19A2,2 0 0,0 21,19V5A2,2 0 0,0 19,3M13,17H15V7H13V11H11V7H9V13H13" />
        </g>
        <g id="numeric-5">
            <path d="M15,15V13C15,11.89 14.1,11 13,11H11V9H15V7H9V13H13V15H9V17H13A2,2 0 0,0 15,15M19,19H5V5H19M19,3H5A2,2 0 0,0 3,5V19A2,2 0 0,0 5,21H19A2,2 0 0,0 21,19V5A2,2 0 0,0 19,3Z" />
        </g>
        <g id="organization">
            <path d="M9,2V8H11V11H5C3.89,11 3,11.89 3,13V16H1V22H7V16H5V13H11V16H9V22H15V16H13V13H19V16H17V22H23V16H21V13C21,11.89 20.11,11 19,11H13V8H15V2H9Z" />
        </g>
        <g id="open-in-new">
            <path d="M19 19H5V5h7V3H5c-1.11 0-2 .9-2 2v14c0 1.1.89 2 2 2h14c1.1 0 2-.9 2-2v-7h-2v7zM14 3v2h3.59l-9.83 9.83 1.41 1.41L19 6.41V10h2V3h-7z"/>
        </g>
        <g id="payment">
            <path d="M20 4H4c-1.11 0-1.99.89-1.99 2L2 18c0 1.11.89 2 2 2h16c1.11 0 2-.89 2-2V6c0-1.11-.89-2-2-2zm0 14H4v-6h16v6zm0-10H4V6h16v2z"/>
        </g>
        <g id="pause">
            <path d="M6 19h4V5H6v14zm8-14v14h4V5h-4z"/>
        </g>
        <g id="pdf">
            <path d="M20 2H8c-1.1 0-2 .9-2 2v12c0 1.1.9 2 2 2h12c1.1 0 2-.9 2-2V4c0-1.1-.9-2-2-2zm-8.5 7.5c0 .83-.67 1.5-1.5 1.5H9v2H7.5V7H10c.83 0 1.5.67 1.5 1.5v1zm5 2c0 .83-.67 1.5-1.5 1.5h-2.5V7H15c.83 0 1.5.67 1.5 1.5v3zm4-3H19v1h1.5V11H19v2h-1.5V7h3v1.5zM9 9.5h1v-1H9v1zM4 6H2v14c0 1.1.9 2 2 2h14v-2H4V6zm10 5.5h1v-3h-1v3z"/>
        </g>
        <g id="people">
            <path d="M16 11c1.66 0 2.99-1.34 2.99-3S17.66 5 16 5c-1.66 0-3 1.34-3 3s1.34 3 3 3zm-8 0c1.66 0 2.99-1.34 2.99-3S9.66 5 8 5C6.34 5 5 6.34 5 8s1.34 3 3 3zm0 2c-2.33 0-7 1.17-7 3.5V19h14v-2.5c0-2.33-4.67-3.5-7-3.5zm8 0c-.29 0-.62.02-.97.05 1.16.84 1.97 1.97 1.97 3.45V19h6v-2.5c0-2.33-4.67-3.5-7-3.5z"/>
        </g>
        <g id="person-add">
            <path d="M15 12c2.21 0 4-1.79 4-4s-1.79-4-4-4-4 1.79-4 4 1.79 4 4 4zm-9-2V7H4v3H1v2h3v3h2v-3h3v-2H6zm9 4c-2.67 0-8 1.34-8 4v2h16v-2c0-2.66-5.33-4-8-4z"/>
        </g>
        <g id="play">
            <path d="M8 5v14l11-7z"/>
        </g>
        <g id="play-arrow">
            <path d="M8 5v14l11-7z"/>
        </g>
        <g id="print">
            <path d="M19 8H5c-1.66 0-3 1.34-3 3v6h4v4h12v-4h4v-6c0-1.66-1.34-3-3-3zm-3 11H8v-5h8v5zm3-7c-.55 0-1-.45-1-1s.45-1 1-1 1 .45 1 1-.45 1-1 1zm-1-9H6v4h12V3z"/>
        </g>
        <g id="priority-high">
            <circle cx="12" cy="19" r="2"/><path d="M10 3h4v12h-4z"/>
        </g>
        <g id="priority-sort-ascending">
            <path d="M9.5,7.5 L9.5,20.5 L7.5,20.5 L7.5,7.5 L5,7.5 L8.5,4 L12,7.5 L9.5,7.5 Z M18.4443359,10.3984375 L16.9589844,10.3984375 L16.9589844,5.66992188 L15.5,6.09619141 L15.5,4.97119141 L18.3081055,4 L18.4443359,4 L18.4443359,10.3984375 Z M15.1231106,17.2695312 L15.5142238,14 L19.2539699,14 L19.2539699,15.1513672 L16.7183254,15.1513672 L16.5733059,16.4213867 C16.6787752,16.359863 16.8172015,16.3056643 16.9885891,16.2587891 C17.1599767,16.2119138 17.3276996,16.1884766 17.4917629,16.1884766 C18.1275083,16.1884766 18.6160288,16.3767071 18.9573391,16.7531738 C19.2986494,17.1296406 19.469302,17.6577114 19.469302,18.3374023 C19.469302,18.7475606 19.3777502,19.1188948 19.1946438,19.451416 C19.0115374,19.7839372 18.7544599,20.0395499 18.4234035,20.2182617 C18.0923472,20.3969735 17.7012378,20.4863281 17.2500637,20.4863281 C16.8486945,20.4863281 16.4722334,20.4035653 16.1206692,20.2380371 C15.7691049,20.0725089 15.493717,19.8454604 15.2944973,19.5568848 C15.0952775,19.2683091 14.997134,18.9423846 15.0000637,18.5791016 L16.4854153,18.5791016 C16.5000638,18.8134777 16.57477,18.999511 16.7095363,19.137207 C16.8443026,19.274903 17.021547,19.34375 17.2412746,19.34375 C17.739324,19.34375 17.9883449,18.9746131 17.9883449,18.2363281 C17.9883449,17.5537075 17.6836605,17.2124023 17.0742824,17.2124023 C16.7285776,17.2124023 16.4707677,17.3237294 16.3008449,17.5463867 L15.1231106,17.2695312 Z"/>
        </g>
        <g id="priority-sort-descending">
            <path d="M9.5,17 L12,17 L8.5,20.5 L5,17 L7.5,17 L7.5,4 L9.5,4 L9.5,17 Z M18.4443359,20.3984375 L16.9589844,20.3984375 L16.9589844,15.6699219 L15.5,16.0961914 L15.5,14.9711914 L18.3081055,14 L18.4443359,14 L18.4443359,20.3984375 Z M15.1231106,7.26953125 L15.5142238,4 L19.2539699,4 L19.2539699,5.15136719 L16.7183254,5.15136719 L16.5733059,6.42138672 C16.6787752,6.35986297 16.8172015,6.3056643 16.9885891,6.25878906 C17.1599767,6.21191383 17.3276996,6.18847656 17.4917629,6.18847656 C18.1275083,6.18847656 18.6160288,6.3767071 18.9573391,6.75317383 C19.2986494,7.12964055 19.469302,7.65771145 19.469302,8.33740234 C19.469302,8.74756064 19.3777502,9.11889482 19.1946438,9.45141602 C19.0115374,9.78393721 18.7544599,10.0395499 18.4234035,10.2182617 C18.0923472,10.3969735 17.7012378,10.4863281 17.2500637,10.4863281 C16.8486945,10.4863281 16.4722334,10.4035653 16.1206692,10.2380371 C15.7691049,10.0725089 15.493717,9.84546043 15.2944973,9.55688477 C15.0952775,9.2683091 14.997134,8.94238463 15.0000637,8.57910156 L16.4854153,8.57910156 C16.5000638,8.81347773 16.57477,8.99951103 16.7095363,9.13720703 C16.8443026,9.27490303 17.021547,9.34375 17.2412746,9.34375 C17.739324,9.34375 17.9883449,8.97461307 17.9883449,8.23632812 C17.9883449,7.55370752 17.6836605,7.21240234 17.0742824,7.21240234 C16.7285776,7.21240234 16.4707677,7.32372936 16.3008449,7.54638672 L15.1231106,7.26953125 Z"/>
        </g>
        <g id="recent-actors">
            <path d="M21 5v14h2V5h-2zm-4 14h2V5h-2v14zM14 5H2c-.55 0-1 .45-1 1v12c0 .55.45 1 1 1h12c.55 0 1-.45 1-1V6c0-.55-.45-1-1-1zM8 7.75c1.24 0 2.25 1.01 2.25 2.25S9.24 12.25 8 12.25 5.75 11.24 5.75 10 6.76 7.75 8 7.75zM12.5 17h-9v-.75c0-1.5 3-2.25 4.5-2.25s4.5.75 4.5 2.25V17z"/>
        </g>
        <g id="redo-variant">
            <path d="M10.5,7A6.5,6.5 0 0,0 4,13.5A6.5,6.5 0 0,0 10.5,20H14V18H10.5C8,18 6,16 6,13.5C6,11 8,9 10.5,9H16.17L13.09,12.09L14.5,13.5L20,8L14.5,2.5L13.08,3.91L16.17,7H10.5M18,18H16V20H18V18Z" />
        </g>
        <g id="remove-circle">
            <path d="M12 2C6.48 2 2 6.48 2 12s4.48 10 10 10 10-4.48 10-10S17.52 2 12 2zm5 11H7v-2h10v2z"/>
        </g>
        <g id="reorder">
            <path d="M7.5,15 L16.5,15 L16.5,13 L7.5,13 L7.5,15 L7.5,15 Z M7.5,19 L16.5,19 L16.5,17 L7.5,17 L7.5,19 L7.5,19 Z M7.5,11 L16.5,11 L16.5,9 L7.5,9 L7.5,11 L7.5,11 Z M7.5,5 L7.5,7 L16.5,7 L16.5,5 L7.5,5 L7.5,5 Z"/>
        </g>
        <g id="replay">
            <path d="M12 5V1L7 6l5 5V7c3.31 0 6 2.69 6 6s-2.69 6-6 6-6-2.69-6-6H4c0 4.42 3.58 8 8 8s8-3.58 8-8-3.58-8-8-8z"/>
        </g>
        <g id="report">
            <path d="M15.73 3H8.27L3 8.27v7.46L8.27 21h7.46L21 15.73V8.27L15.73 3zM12 17.3c-.72 0-1.3-.58-1.3-1.3 0-.72.58-1.3 1.3-1.3.72 0 1.3.58 1.3 1.3 0 .72-.58 1.3-1.3 1.3zm1-4.3h-2V7h2v6z"/>
        </g>
        <g id="terrain">
            <path d="M14 6l-3.75 5 2.85 3.8-1.6 1.2C9.81 13.75 7 10 7 10l-6 8h22L14 6z"/>
        </g>
        <g id="save">
            <path d="M17 3H5c-1.11 0-2 .9-2 2v14c0 1.1.89 2 2 2h14c1.1 0 2-.9 2-2V7l-4-4zm-5 16c-1.66 0-3-1.34-3-3s1.34-3 3-3 3 1.34 3 3-1.34 3-3 3zm3-10H5V5h10v4z"/>
        </g>
        <g id="schedule">
            <path d="M11.99 2C6.47 2 2 6.48 2 12s4.47 10 9.99 10C17.52 22 22 17.52 22 12S17.52 2 11.99 2zM12 20c-4.42 0-8-3.58-8-8s3.58-8 8-8 8 3.58 8 8-3.58 8-8 8zm.5-13H11v6l5.25 3.15.75-1.23-4.5-2.67z"/>
        </g>
        <g id="search">
            <path d="M15.5 14h-.79l-.28-.27C15.41 12.59 16 11.11 16 9.5 16 5.91 13.09 3 9.5 3S3 5.91 3 9.5 5.91 16 9.5 16c1.61 0 3.09-.59 4.23-1.57l.27.28v.79l5 4.99L20.49 19l-4.99-5zm-6 0C7.01 14 5 11.99 5 9.5S7.01 5 9.5 5 14 7.01 14 9.5 11.99 14 9.5 14z"/>
        </g>
        <g id="settings">
            <path d="M19.43 12.98c.04-.32.07-.64.07-.98s-.03-.66-.07-.98l2.11-1.65c.19-.15.24-.42.12-.64l-2-3.46c-.12-.22-.39-.3-.61-.22l-2.49 1c-.52-.4-1.08-.73-1.69-.98l-.38-2.65C14.46 2.18 14.25 2 14 2h-4c-.25 0-.46.18-.49.42l-.38 2.65c-.61.25-1.17.59-1.69.98l-2.49-1c-.23-.09-.49 0-.61.22l-2 3.46c-.13.22-.07.49.12.64l2.11 1.65c-.04.32-.07.65-.07.98s.03.66.07.98l-2.11 1.65c-.19.15-.24.42-.12.64l2 3.46c.12.22.39.3.61.22l2.49-1c.52.4 1.08.73 1.69.98l.38 2.65c.03.24.24.42.49.42h4c.25 0 .46-.18.49-.42l.38-2.65c.61-.25 1.17-.59 1.69-.98l2.49 1c.23.09.49 0 .61-.22l2-3.46c.12-.22.07-.49-.12-.64l-2.11-1.65zM12 15.5c-1.93 0-3.5-1.57-3.5-3.5s1.57-3.5 3.5-3.5 3.5 1.57 3.5 3.5-1.57 3.5-3.5 3.5z"/>
        </g>
        <g id="slideshow">
            <path d="M10 8v8l5-4-5-4zm9-5H5c-1.1 0-2 .9-2 2v14c0 1.1.9 2 2 2h14c1.1 0 2-.9 2-2V5c0-1.1-.9-2-2-2zm0 16H5V5h14v14z"/>
        </g>
        <g id="skip-previous">
            <path d="M6 6h2v12H6zm3.5 6l8.5 6V6z"/>
        </g>
        <g id="skip-next">
            <path d="M6 18l8.5-6L6 6v12zM16 6v12h2V6h-2z"/>
        </g>
        <g id="speaker-notes">
            <path d="M20 2H4c-1.1 0-1.99.9-1.99 2L2 22l4-4h14c1.1 0 2-.9 2-2V4c0-1.1-.9-2-2-2zM8 14H6v-2h2v2zm0-3H6V9h2v2zm0-3H6V6h2v2zm7 6h-5v-2h5v2zm3-3h-8V9h8v2zm0-3h-8V6h8v2z"/>
        </g>
        <g id="speedometer"> 
            <path d="M12,16A3,3 0 0,1 9,13C9,11.88 9.61,10.9 10.5,10.39L20.21,4.77L14.68,14.35C14.18,15.33 13.17,16 12,16M12,3C13.81,3 15.5,3.5 16.97,4.32L14.87,5.53C14,5.19 13,5 12,5A8,8 0 0,0 4,13C4,15.21 4.89,17.21 6.34,18.65H6.35C6.74,19.04 6.74,19.67 6.35,20.06C5.96,20.45 5.32,20.45 4.93,20.07V20.07C3.12,18.26 2,15.76 2,13A10,10 0 0,1 12,3M22,13C22,15.76 20.88,18.26 19.07,20.07V20.07C18.68,20.45 18.05,20.45 17.66,20.06C17.27,19.67 17.27,19.04 17.66,18.65V18.65C19.11,17.2 20,15.21 20,13C20,12 19.81,11 19.46,10.1L20.67,8C21.5,9.5 22,11.18 22,13Z" /> 
        </g>
        <g id="stop">
            <path d="M6 6h12v12H6z"/>
        </g>
        <g id="storage">
            <path d="M2 20h20v-4H2v4zm2-3h2v2H4v-2zM2 4v4h20V4H2zm4 3H4V5h2v2zm-4 7h20v-4H2v4zm2-3h2v2H4v-2z"/>
        </g>
        <g id="supervisor-account">
            <path d="M16.5 12c1.38 0 2.49-1.12 2.49-2.5S17.88 7 16.5 7C15.12 7 14 8.12 14 9.5s1.12 2.5 2.5 2.5zM9 11c1.66 0 2.99-1.34 2.99-3S10.66 5 9 5C7.34 5 6 6.34 6 8s1.34 3 3 3zm7.5 3c-1.83 0-5.5.92-5.5 2.75V19h11v-2.25c0-1.83-3.67-2.75-5.5-2.75zM9 13c-2.33 0-7 1.17-7 3.5V19h7v-2.25c0-.85.33-2.34 2.37-3.47C10.5 13.1 9.66 13 9 13z"/>
        </g>
        <g id="theater">
            <path d="M4,15H6A2,2 0 0,1 8,17V19H9V17A2,2 0 0,1 11,15H13A2,2 0 0,1 15,17V19H16V17A2,2 0 0,1 18,15H20A2,2 0 0,1 22,17V19H23V22H1V19H2V17A2,2 0 0,1 4,15M11,7L15,10L11,13V7M4,2H20A2,2 0 0,1 22,4V13.54C21.41,13.19 20.73,13 20,13V4H4V13C3.27,13 2.59,13.19 2,13.54V4A2,2 0 0,1 4,2Z" />
        </g>
        <g id="thumb-up">
            <path d="M1 21h4V9H1v12zm22-11c0-1.1-.9-2-2-2h-6.31l.95-4.57.03-.32c0-.41-.17-.79-.44-1.06L14.17 1 7.59 7.59C7.22 7.95 7 8.45 7 9v10c0 1.1.9 2 2 2h9c.83 0 1.54-.5 1.84-1.22l3.02-7.05c.09-.23.14-.47.14-.73v-1.91l-.01-.01L23 10z"/> 
        </g>
        <g id="thumb-up-outline">
            <path d="M5,9V21H1V9H5M9,21A2,2 0 0,1 7,19V9C7,8.45 7.22,7.95 7.59,7.59L14.17,1L15.23,2.06C15.5,2.33 15.67,2.7 15.67,3.11L15.64,3.43L14.69,8H21C22.11,8 23,8.9 23,10V10.09L23,12C23,12.26 22.95,12.5 22.86,12.73L19.84,19.78C19.54,20.5 18.83,21 18,21H9M9,19H18.03L21,12V10H12.21L13.34,4.68L9,9.03V19Z" />
        </g>
        <g id="thumb-down"> 
            <path d="M15 3H6c-.83 0-1.54.5-1.84 1.22l-3.02 7.05c-.09.23-.14.47-.14.73v1.91l.01.01L1 14c0 1.1.9 2 2 2h6.31l-.95 4.57-.03.32c0 .41.17.79.44 1.06L9.83 23l6.59-6.59c.36-.36.58-.86.58-1.41V5c0-1.1-.9-2-2-2zm4 0v12h4V3h-4z"/> 
        </g>
        <g id="thumb-down-outline">
            <path d="M19,15V3H23V15H19M15,3A2,2 0 0,1 17,5V15C17,15.55 16.78,16.05 16.41,16.41L9.83,23L8.77,21.94C8.5,21.67 8.33,21.3 8.33,20.88L8.36,20.57L9.31,16H3C1.89,16 1,15.1 1,14V13.91L1,12C1,11.74 1.05,11.5 1.14,11.27L4.16,4.22C4.46,3.5 5.17,3 6,3H15M15,5H5.97L3,12V14H11.78L10.65,19.32L15,14.97V5Z" />
        </g> 
        <g id="timeline">
            <path d="M23 8c0 1.1-.9 2-2 2-.18 0-.35-.02-.51-.07l-3.56 3.55c.05.16.07.34.07.52 0 1.1-.9 2-2 2s-2-.9-2-2c0-.18.02-.36.07-.52l-2.55-2.55c-.16.05-.34.07-.52.07s-.36-.02-.52-.07l-4.55 4.56c.05.16.07.33.07.51 0 1.1-.9 2-2 2s-2-.9-2-2 .9-2 2-2c.18 0 .35.02.51.07l4.56-4.55C8.02 9.36 8 9.18 8 9c0-1.1.9-2 2-2s2 .9 2 2c0 .18-.02.36-.07.52l2.55 2.55c.16-.05.34-.07.52-.07s.36.02.52.07l3.55-3.56C19.02 8.35 19 8.18 19 8c0-1.1.9-2 2-2s2 .9 2 2z"/>
        </g>
        <g id="traction">
            <path d="M21.3022935,11.999653 L21.9504098,10.4924187 L20.902817,7.22605045 L19.5067153,6.4724333 L19.1072388,4.76395684 L16.2647565,2.9042018 L14.8183759,3.05548038 L13.6213238,2 L10.2299056,2 L9.0328535,3.05548038 L7.48660376,2.9042018 L4.74330188,4.91454148 L4.39410428,6.4724333 L3.04759281,7.27601402 L2,10.5423823 L2.64880501,11.999653 L2,13.4569238 L3.04759281,16.723292 L4.39410428,17.5275667 L4.74330188,19.0854585 L7.53619395,21.0951043 L9.08244369,20.9445196 L10.2794958,22 L13.7211929,22 L14.9182451,20.9445196 L16.514085,21.0951043 L19.2573869,19.0854585 L19.6058957,17.5275667 L20.9530959,16.723292 L22,13.4569238 L21.3022935,11.999653 Z M11.9752049,18.2312203 C8.58378676,18.2312203 5.79089469,15.4672635 5.79089469,11.999653 C5.79089469,8.58270011 8.53350782,5.76877971 11.9752049,5.76877971 C15.366623,5.76877971 18.1595151,8.53273655 18.1595151,11.999653 C18.1595151,15.4172999 15.416902,18.2312203 11.9752049,18.2312203 Z M11.9752049,7.07546581 C9.28218197,7.07546581 7.08712721,9.2863537 7.08712721,11.999653 C7.08712721,14.7136463 9.28218197,16.8745706 11.9752049,16.8745706 C14.6682278,16.8745706 16.8632826,14.6629888 16.8130037,11.9496895 C16.8632826,9.2863537 14.6682278,7.07546581 11.9752049,7.07546581 Z M15.5160824,11.999653 C15.5160824,13.9600291 13.9705214,15.5678845 12.0247951,15.5678845 C10.0797576,15.5678845 8.53350782,13.9600291 8.53350782,12.0503105 C8.53350782,10.0906284 10.0797576,8.48207904 12.0247951,8.48207904 C13.9202424,8.48207904 15.4664922,10.0399709 15.5160824,11.999653 Z"/>
        </g>
        <g id="trending-up">
            <path d="M16 6l2.29 2.29-4.88 4.88-4-4L2 16.59 3.41 18l6-6 4 4 6.3-6.29L22 12V6z"/>
        </g>
        <g id="tune">
            <path d="M3 17v2h6v-2H3zM3 5v2h10V5H3zm10 16v-2h8v-2h-8v-2h-2v6h2zM7 9v2H3v2h4v2h2V9H7zm14 4v-2H11v2h10zm-6-4h2V7h4V5h-4V3h-2v6z"/>
        </g>
        <g id="unarchive"> 
            <path d="M20.55 5.22l-1.39-1.68C18.88 3.21 18.47 3 18 3H6c-.47 0-.88.21-1.15.55L3.46 5.22C3.17 5.57 3 6.01 3 6.5V19c0 1.1.89 2 2 2h14c1.1 0 2-.9 2-2V6.5c0-.49-.17-.93-.45-1.28zM12 9.5l5.5 5.5H14v2h-4v-2H6.5L12 9.5zM5.12 5l.82-1h12l.93 1H5.12z"/> 
        </g> 
        <g id="visibility">
            <path d="M12 4.5C7 4.5 2.73 7.61 1 12c1.73 4.39 6 7.5 11 7.5s9.27-3.11 11-7.5c-1.73-4.39-6-7.5-11-7.5zM12 17c-2.76 0-5-2.24-5-5s2.24-5 5-5 5 2.24 5 5-2.24 5-5 5zm0-8c-1.66 0-3 1.34-3 3s1.34 3 3 3 3-1.34 3-3-1.34-3-3-3z"/>
        </g>
        <g id="warning">
            <path d="M1 21h22L12 2 1 21zm12-3h-2v-2h2v2zm0-4h-2v-4h2v4z"/>
        </g>
        <g id="zoom-in">
            <path d="M15.5 14h-.79l-.28-.27C15.41 12.59 16 11.11 16 9.5 16 5.91 13.09 3 9.5 3S3 5.91 3 9.5 5.91 16 9.5 16c1.61 0 3.09-.59 4.23-1.57l.27.28v.79l5 4.99L20.49 19l-4.99-5zm-6 0C7.01 14 5 11.99 5 9.5S7.01 5 9.5 5 14 7.01 14 9.5 11.99 14 9.5 14zm2.5-4h-2v2H9v-2H7V9h2V7h1v2h2v1z"/>
        </g>
        <g id="zoom-out">
            <path d="M15.5 14h-.79l-.28-.27C15.41 12.59 16 11.11 16 9.5 16 5.91 13.09 3 9.5 3S3 5.91 3 9.5 5.91 16 9.5 16c1.61 0 3.09-.59 4.23-1.57l.27.28v.79l5 4.99L20.49 19l-4.99-5zm-6 0C7.01 14 5 11.99 5 9.5S7.01 5 9.5 5 14 7.01 14 9.5 11.99 14 9.5 14zM7 9h5v1H7z"/>
        </g>
        <g id="zoom-reset">
            <path d="M17.01 14h-.8l-.27-.27c.98-1.14 1.57-2.61 1.57-4.23 0-3.59-2.91-6.5-6.5-6.5s-6.5 3-6.5 6.5H2l3.84 4 4.16-4H6.51C6.51 7 8.53 5 11.01 5s4.5 2.01 4.5 4.5c0 2.48-2.02 4.5-4.5 4.5-.65 0-1.26-.14-1.82-.38L7.71 15.1c.97.57 2.09.9 3.3.9 1.61 0 3.08-.59 4.22-1.57l.27.27v.79l5.01 4.99L22 19l-4.99-5z"/>
        </g>
    </defs>
</svg>